<svg width="50" height="50" viewBox="0 0 50 50" fill="#F78CB6" xmlns="http://www.w3.org/2000/svg">
    <path d="M47.9982 37.5193V10.8871C48.0649 8.49581 46.1805 6.50327 43.7892 6.43661C43.69 6.43381 43.5905 6.43448 43.4912 6.43852H33.9504V4.62412C34.0151 2.13583 32.0503 0.0662127 29.562 0.00156878C29.5225 0.000560465 29.4829 2.9856e-07 29.4435 2.9856e-07H18.5564C16.0672 -0.000895978 14.0487 2.01629 14.0479 4.50547C14.0479 4.54502 14.0484 4.58457 14.0495 4.62401V6.43852H4.50874C2.11848 6.34071 0.101524 8.19892 0.00360608 10.5891C-0.000427168 10.6883 -0.00109938 10.7877 0.00170149 10.8871V37.5193C-0.0629425 40.0076 1.90181 42.0772 4.3901 42.1418C4.42965 42.1428 4.4692 42.1434 4.50863 42.1434H43.4912C45.9804 42.1443 47.9989 40.1271 47.9997 37.6379C47.9998 37.5984 47.9993 37.5588 47.9982 37.5193ZM18.4362 2.34455C18.4762 2.34242 18.5163 2.3413 18.5564 2.34141H29.4435C30.6396 2.33962 31.6106 3.30782 31.6124 4.5039C31.6125 4.54401 31.6114 4.58412 31.6093 4.62412V6.43863H16.3908V4.62412C16.3262 3.42983 17.2419 2.40919 18.4362 2.34455ZM43.6115 39.799C43.5715 39.8011 43.5314 39.8022 43.4913 39.8021H4.50874C3.31266 39.8039 2.34166 38.8357 2.33986 37.6396C2.33975 37.5995 2.34087 37.5594 2.343 37.5194V29.8516C2.98496 30.2705 3.7431 30.4754 4.50874 30.437H16.3908V33.8319C16.4991 34.5375 17.0833 35.073 17.7956 35.1196H30.2045C30.9168 35.073 31.5009 34.5375 31.6093 33.8319V30.437H43.4913C44.257 30.4755 45.0151 30.2706 45.6571 29.8516V37.5194C45.7216 38.7137 44.8058 39.7343 43.6115 39.799ZM18.7321 32.7782V26.9249H29.268V32.7782H18.7321ZM43.6115 28.0925C43.5715 28.0946 43.5314 28.0957 43.4913 28.0956H31.6091V25.5787C31.6091 24.9349 30.8482 24.5836 30.2043 24.5836H17.7956C17.1517 24.5836 16.3908 24.9349 16.3908 25.5787V28.0956H4.50874C3.31266 28.0974 2.34166 27.1292 2.33986 25.9331C2.33975 25.893 2.34087 25.8529 2.343 25.8129V10.8871C2.27388 9.79015 3.10708 8.84491 4.20401 8.77578C4.30551 8.7694 4.40746 8.77074 4.50874 8.77993H43.4913C44.5859 8.68078 45.5536 9.48776 45.6528 10.5823C45.662 10.6836 45.6633 10.7856 45.6569 10.8871V25.8128C45.7216 27.0072 44.8058 28.0278 43.6115 28.0925Z" />
    <path d="M47.9982 37.5193V10.8871C48.0649 8.49581 46.1805 6.50327 43.7892 6.43661C43.69 6.43381 43.5905 6.43448 43.4912 6.43852H33.9504V4.62412C34.0151 2.13583 32.0503 0.0662127 29.562 0.00156878C29.5225 0.000560465 29.4829 2.9856e-07 29.4435 2.9856e-07H18.5564C16.0672 -0.000895978 14.0487 2.01629 14.0479 4.50547C14.0479 4.54502 14.0484 4.58457 14.0495 4.62401V6.43852H4.50874C2.11848 6.34071 0.101524 8.19892 0.00360608 10.5891C-0.000427168 10.6883 -0.00109938 10.7877 0.00170149 10.8871V37.5193C-0.0629425 40.0076 1.90181 42.0772 4.3901 42.1418C4.42965 42.1428 4.4692 42.1434 4.50863 42.1434H43.4912C45.9804 42.1443 47.9989 40.1271 47.9997 37.6379C47.9998 37.5984 47.9993 37.5588 47.9982 37.5193ZM18.4362 2.34455C18.4762 2.34242 18.5163 2.3413 18.5564 2.34141H29.4435C30.6396 2.33962 31.6106 3.30782 31.6124 4.5039C31.6125 4.54401 31.6114 4.58412 31.6093 4.62412V6.43863H16.3908V4.62412C16.3262 3.42983 17.2419 2.40919 18.4362 2.34455ZM43.6115 39.799C43.5715 39.8011 43.5314 39.8022 43.4913 39.8021H4.50874C3.31266 39.8039 2.34166 38.8357 2.33986 37.6396C2.33975 37.5995 2.34087 37.5594 2.343 37.5194V29.8516C2.98496 30.2705 3.7431 30.4754 4.50874 30.437H16.3908V33.8319C16.4991 34.5375 17.0833 35.073 17.7956 35.1196H30.2045C30.9168 35.073 31.5009 34.5375 31.6093 33.8319V30.437H43.4913C44.257 30.4755 45.0151 30.2706 45.6571 29.8516V37.5194C45.7216 38.7137 44.8058 39.7343 43.6115 39.799ZM18.7321 32.7782V26.9249H29.268V32.7782H18.7321ZM43.6115 28.0925C43.5715 28.0946 43.5314 28.0957 43.4913 28.0956H31.6091V25.5787C31.6091 24.9349 30.8482 24.5836 30.2043 24.5836H17.7956C17.1517 24.5836 16.3908 24.9349 16.3908 25.5787V28.0956H4.50874C3.31266 28.0974 2.34166 27.1292 2.33986 25.9331C2.33975 25.893 2.34087 25.8529 2.343 25.8129V10.8871C2.27388 9.79015 3.10708 8.84491 4.20401 8.77578C4.30551 8.7694 4.40746 8.77074 4.50874 8.77993H43.4913C44.5859 8.68078 45.5536 9.48776 45.6528 10.5823C45.662 10.6836 45.6633 10.7856 45.6569 10.8871V25.8128C45.7216 27.0072 44.8058 28.0278 43.6115 28.0925Z" />
</svg>