<svg width="40" height="50" xmlns="http://www.w3.org/2000/svg" xmlns:xlink="http://www.w3.org/1999/xlink">
    <symbol id="design" viewBox="0 0 50 50">
        <path d="M50.175 26.6598V26.6584L49.4794 25.9066L49.5398 25.7423L49.5397 25.7423L38.3202 21.6134V8.37653V8.20153H38.3193C38.3384 7.78651 38.0896 7.39231 37.6844 7.24632C37.6842 7.24624 37.684 7.24615 37.6837 7.24607L25.8309 2.88479C25.8308 2.88474 25.8306 2.88469 25.8305 2.88464C25.6172 2.80512 25.3828 2.80512 25.1695 2.88464C25.1694 2.88469 25.1692 2.88474 25.1691 2.88479L13.315 7.24652L13.3144 7.24673C13.0502 7.34503 12.8444 7.55329 12.7456 7.81362H12.6798V7.98862V21.6134L1.46019 25.7423L1.45961 25.7426C1.19537 25.8409 0.989598 26.0491 0.890798 26.3094H0.825V26.4844V40.6632V40.8382H0.825463C0.825294 41.2392 1.07159 41.6106 1.46032 41.7533L13.314 46.1149C13.314 46.1149 13.3141 46.1149 13.3142 46.115C13.5276 46.195 13.7625 46.195 13.976 46.115C13.9761 46.115 13.9762 46.1149 13.9763 46.1149L25.5 41.8745L37.0237 46.1149C37.0237 46.1149 37.0238 46.1149 37.0239 46.115C37.2374 46.195 37.4723 46.195 37.6858 46.115C37.6859 46.1149 37.6859 46.1149 37.686 46.1149L49.5398 41.7533C49.7906 41.661 49.9898 41.469 50.0942 41.2261H50.175V41.0511L50.175 26.8724L50.175 26.8716V26.8715L50.175 26.8712L50.175 26.87L50.175 26.8655L50.1749 26.8485L50.1748 26.7922C50.1747 26.7478 50.1747 26.6951 50.175 26.6598ZM12.6798 31.7034V43.8066L2.75565 40.1552V28.051L12.6798 31.7034ZM13.5829 23.3557L22.6193 26.6814L13.6452 29.9831L4.60971 26.6584L13.5829 23.3557ZM24.5347 28.051V40.1552L14.6105 43.8066V31.7034L24.5347 28.051ZM24.5347 13.2075V25.2658L14.6105 21.6134V9.5552L24.5347 13.2075ZM16.4646 8.16258L25.5 4.83785L34.5354 8.16258L25.5 11.4873L16.4646 8.16258ZM26.4653 13.2075L36.3895 9.5552V21.6134L26.4653 25.2658V13.2075ZM36.3895 31.7034V43.8066L26.4653 40.1552V28.051L36.3895 31.7034ZM46.3903 26.6584L37.3548 29.9831L28.3807 26.6814L37.4171 23.3557L46.3903 26.6584ZM48.2444 28.051V40.1552L38.3202 43.8066V31.7034L48.2444 28.051Z" stroke-width="0.35"/>
    </symbol>
    <symbol id="develop" viewBox="0 0 50 50">
        <path d="M6.30308 0H1.26545C0.569975 0 0.00610352 0.563871 0.00610352 1.25943V6.38105C0.00610352 7.07661 0.569891 7.64048 1.26553 7.64048C1.96109 7.64048 2.52496 7.07661 2.52496 6.38105V2.51886H6.30317C6.99873 2.51886 7.5626 1.95499 7.5626 1.25943C7.56251 0.563871 6.99864 0 6.30308 0Z" />
        <path d="M41.7345 0H36.6969C36.0013 0 35.4374 0.563871 35.4374 1.25943C35.4374 1.95499 36.0012 2.51886 36.6969 2.51886H40.4751V6.38105C40.4751 7.07661 41.0389 7.64048 41.7345 7.64048C42.4301 7.64048 42.9939 7.07661 42.9939 6.38105V1.25943C42.9939 0.563871 42.4301 0 41.7345 0Z" />
        <path d="M6.30311 40.469H2.5249V36.6068C2.5249 35.9113 1.96103 35.3474 1.26547 35.3474C0.569914 35.3474 0.00604248 35.9113 0.00604248 36.6068V41.7285C0.00604248 42.424 0.56983 42.9879 1.26547 42.9879H6.30311C6.99867 42.9879 7.56254 42.424 7.56254 41.7285C7.56254 41.0329 6.99867 40.469 6.30311 40.469Z" />
        <path d="M41.7345 35.3474C41.0389 35.3474 40.4751 35.9113 40.4751 36.6068V40.469H36.6969C36.0013 40.469 35.4374 41.0329 35.4374 41.7285C35.4374 42.424 36.0013 42.9879 36.6969 42.9879H41.7345C42.4301 42.9879 42.9939 42.424 42.9939 41.7285V36.6068C42.9939 35.9113 42.4301 35.3474 41.7345 35.3474Z" />
        <path d="M39.6717 10.332L22.1313 0.16969C21.7409 -0.0565635 21.2591 -0.0565635 20.8686 0.16969L3.3211 10.3319C2.93427 10.556 2.69281 10.9734 2.69281 11.4208C2.69281 11.4233 2.69306 11.4259 2.69306 11.4283V31.5782C2.69306 32.0299 2.93855 32.4527 3.33386 32.6753L20.8687 42.8303C21.0576 42.9397 21.2823 43 21.5001 43C21.7275 43 21.9496 42.9356 22.1315 42.8303L39.6592 32.6752C39.6622 32.6735 39.665 32.6718 39.668 32.6701C40.0742 32.377 40.2931 32.1307 40.2993 31.5934C40.2993 31.5883 40.2998 31.5834 40.2998 31.5783V11.4285C40.2998 11.4259 40.3 11.4234 40.3 11.421C40.3 10.9731 40.0584 10.5557 39.6717 10.332ZM20.2406 39.5554L6.48177 31.5839L17.0889 25.501C17.6923 25.155 17.901 24.3853 17.5549 23.782C17.2089 23.1786 16.4393 22.97 15.8359 23.316L5.21167 29.4042V13.5978L20.2406 22.2289V39.5554ZM21.5 20.0475L6.47992 11.4172L21.5 2.71492L36.5201 11.4172L21.5 20.0475ZM37.7891 29.4042L27.1642 23.316C26.5608 22.97 25.7912 23.1785 25.4452 23.7819C25.0991 24.3853 25.3077 25.1549 25.9111 25.5009L36.5183 31.5837L22.7594 39.5553V22.2289L37.7891 13.5978V29.4042H37.7891Z" />
    </symbol>
    <symbol id="branding" viewBox="0 0 50 50">
        <path d="M47.9982 37.5193V10.8871C48.0649 8.49581 46.1805 6.50327 43.7892 6.43661C43.69 6.43381 43.5905 6.43448 43.4912 6.43852H33.9504V4.62412C34.0151 2.13583 32.0503 0.0662127 29.562 0.00156878C29.5225 0.000560465 29.4829 2.9856e-07 29.4435 2.9856e-07H18.5564C16.0672 -0.000895978 14.0487 2.01629 14.0479 4.50547C14.0479 4.54502 14.0484 4.58457 14.0495 4.62401V6.43852H4.50874C2.11848 6.34071 0.101524 8.19892 0.00360608 10.5891C-0.000427168 10.6883 -0.00109938 10.7877 0.00170149 10.8871V37.5193C-0.0629425 40.0076 1.90181 42.0772 4.3901 42.1418C4.42965 42.1428 4.4692 42.1434 4.50863 42.1434H43.4912C45.9804 42.1443 47.9989 40.1271 47.9997 37.6379C47.9998 37.5984 47.9993 37.5588 47.9982 37.5193ZM18.4362 2.34455C18.4762 2.34242 18.5163 2.3413 18.5564 2.34141H29.4435C30.6396 2.33962 31.6106 3.30782 31.6124 4.5039C31.6125 4.54401 31.6114 4.58412 31.6093 4.62412V6.43863H16.3908V4.62412C16.3262 3.42983 17.2419 2.40919 18.4362 2.34455ZM43.6115 39.799C43.5715 39.8011 43.5314 39.8022 43.4913 39.8021H4.50874C3.31266 39.8039 2.34166 38.8357 2.33986 37.6396C2.33975 37.5995 2.34087 37.5594 2.343 37.5194V29.8516C2.98496 30.2705 3.7431 30.4754 4.50874 30.437H16.3908V33.8319C16.4991 34.5375 17.0833 35.073 17.7956 35.1196H30.2045C30.9168 35.073 31.5009 34.5375 31.6093 33.8319V30.437H43.4913C44.257 30.4755 45.0151 30.2706 45.6571 29.8516V37.5194C45.7216 38.7137 44.8058 39.7343 43.6115 39.799ZM18.7321 32.7782V26.9249H29.268V32.7782H18.7321ZM43.6115 28.0925C43.5715 28.0946 43.5314 28.0957 43.4913 28.0956H31.6091V25.5787C31.6091 24.9349 30.8482 24.5836 30.2043 24.5836H17.7956C17.1517 24.5836 16.3908 24.9349 16.3908 25.5787V28.0956H4.50874C3.31266 28.0974 2.34166 27.1292 2.33986 25.9331C2.33975 25.893 2.34087 25.8529 2.343 25.8129V10.8871C2.27388 9.79015 3.10708 8.84491 4.20401 8.77578C4.30551 8.7694 4.40746 8.77074 4.50874 8.77993H43.4913C44.5859 8.68078 45.5536 9.48776 45.6528 10.5823C45.662 10.6836 45.6633 10.7856 45.6569 10.8871V25.8128C45.7216 27.0072 44.8058 28.0278 43.6115 28.0925Z"  />
        <path d="M47.9982 37.5193V10.8871C48.0649 8.49581 46.1805 6.50327 43.7892 6.43661C43.69 6.43381 43.5905 6.43448 43.4912 6.43852H33.9504V4.62412C34.0151 2.13583 32.0503 0.0662127 29.562 0.00156878C29.5225 0.000560465 29.4829 2.9856e-07 29.4435 2.9856e-07H18.5564C16.0672 -0.000895978 14.0487 2.01629 14.0479 4.50547C14.0479 4.54502 14.0484 4.58457 14.0495 4.62401V6.43852H4.50874C2.11848 6.34071 0.101524 8.19892 0.00360608 10.5891C-0.000427168 10.6883 -0.00109938 10.7877 0.00170149 10.8871V37.5193C-0.0629425 40.0076 1.90181 42.0772 4.3901 42.1418C4.42965 42.1428 4.4692 42.1434 4.50863 42.1434H43.4912C45.9804 42.1443 47.9989 40.1271 47.9997 37.6379C47.9998 37.5984 47.9993 37.5588 47.9982 37.5193ZM18.4362 2.34455C18.4762 2.34242 18.5163 2.3413 18.5564 2.34141H29.4435C30.6396 2.33962 31.6106 3.30782 31.6124 4.5039C31.6125 4.54401 31.6114 4.58412 31.6093 4.62412V6.43863H16.3908V4.62412C16.3262 3.42983 17.2419 2.40919 18.4362 2.34455ZM43.6115 39.799C43.5715 39.8011 43.5314 39.8022 43.4913 39.8021H4.50874C3.31266 39.8039 2.34166 38.8357 2.33986 37.6396C2.33975 37.5995 2.34087 37.5594 2.343 37.5194V29.8516C2.98496 30.2705 3.7431 30.4754 4.50874 30.437H16.3908V33.8319C16.4991 34.5375 17.0833 35.073 17.7956 35.1196H30.2045C30.9168 35.073 31.5009 34.5375 31.6093 33.8319V30.437H43.4913C44.257 30.4755 45.0151 30.2706 45.6571 29.8516V37.5194C45.7216 38.7137 44.8058 39.7343 43.6115 39.799ZM18.7321 32.7782V26.9249H29.268V32.7782H18.7321ZM43.6115 28.0925C43.5715 28.0946 43.5314 28.0957 43.4913 28.0956H31.6091V25.5787C31.6091 24.9349 30.8482 24.5836 30.2043 24.5836H17.7956C17.1517 24.5836 16.3908 24.9349 16.3908 25.5787V28.0956H4.50874C3.31266 28.0974 2.34166 27.1292 2.33986 25.9331C2.33975 25.893 2.34087 25.8529 2.343 25.8129V10.8871C2.27388 9.79015 3.10708 8.84491 4.20401 8.77578C4.30551 8.7694 4.40746 8.77074 4.50874 8.77993H43.4913C44.5859 8.68078 45.5536 9.48776 45.6528 10.5823C45.662 10.6836 45.6633 10.7856 45.6569 10.8871V25.8128C45.7216 27.0072 44.8058 28.0278 43.6115 28.0925Z"  />
    </symbol>
    <symbol id="illust" viewBox="0 0 50 50">
        <path d="M43.9999 21.9972C43.999 21.551 43.7672 21.1369 43.3873 20.9027L38.9156 18.1461L43.392 15.36C43.7695 15.125 43.9992 14.7121 43.9999 14.2675C44.0006 13.8229 43.7721 13.4093 43.3953 13.1732L22.6844 0.19671C22.2658 -0.0655701 21.7341 -0.0655701 21.3155 0.19671L0.604655 13.1732C0.227907 13.4093 -0.000600375 13.8229 1.1848e-06 14.2675C0.000688682 14.7122 0.230399 15.1251 0.607921 15.36L5.05362 18.127L0.605944 20.907C0.22868 21.1428 -0.000342564 21.5564 8.7122e-05 22.0013C0.000516808 22.4462 0.230313 22.8594 0.608007 23.0945L5.05371 25.8615L0.605944 28.6413C0.229282 28.8768 0.000344933 29.2895 8.7122e-05 29.7337C-0.00017069 30.178 0.228336 30.591 0.604741 30.8268L21.3156 43.8033C21.5249 43.9344 21.7625 44 22 44C22.2375 44 22.4751 43.9344 22.6844 43.8033L43.3953 30.8268C43.7729 30.5902 44.0015 30.1753 43.9999 29.7297C43.9983 29.2841 43.7666 28.8709 43.3873 28.6371L38.9156 25.8806L43.392 23.0944C43.7709 22.8586 44.0009 22.4435 43.9999 21.9972ZM3.7228 14.2621L22 2.8104L40.2772 14.2621C40.1015 14.3714 22.5238 25.3119 22 25.638L3.7228 14.2621ZM40.2688 29.7434L22 41.1898L3.71919 29.7358L7.49089 27.3785L21.3189 35.9851C21.5273 36.1148 21.7637 36.1797 22 36.1797C22.2363 36.1797 22.4727 36.1148 22.6811 35.9851L36.471 27.4022L40.2688 29.7434ZM22 33.3723L3.72495 21.9979L7.49089 19.6441L21.3189 28.2507C21.5273 28.3805 21.7637 28.4454 22 28.4454C22.2363 28.4454 22.4727 28.3805 22.6811 28.2507L36.471 19.6678L40.2629 22.0053C40.1582 22.0706 22.4838 33.0711 22 33.3723Z"  />
    </symbol>

</svg>
